<svg xmlns="http://www.w3.org/2000/svg" xmlns:xlink="http://www.w3.org/1999/xlink" width="80" zoomAndPan="magnify" viewBox="0 0 60 60" height="80" preserveAspectRatio="xMidYMid meet" version="1.2"><g id="64f513324b"><path style=" stroke:none;fill-rule:nonzero;fill:#ffffff;fill-opacity:1;" d="M 18.375 13.726562 C 18.148438 14.25 18.074219 20.773438 18.148438 28.125 L 18.375 41.625 L 25.351562 41.851562 C 31.648438 42 32.25 42.148438 32.25 43.5 C 32.25 44.550781 31.726562 45 30.523438 45 C 28.425781 45 27 46.273438 27 48.148438 C 27 49.351562 27.824219 49.5 36.75 49.5 C 45.675781 49.5 46.5 49.351562 46.5 48.148438 C 46.5 46.273438 45.074219 45 42.976562 45 C 41.773438 45 41.25 44.550781 41.25 43.5 C 41.25 42.148438 41.851562 42 48.226562 41.851562 L 55.125 41.625 L 55.125 13.125 L 36.898438 12.898438 C 22.5 12.75 18.601562 12.898438 18.375 13.726562 Z M 54 27.375 L 54 40.5 L 19.5 40.5 L 19.5 14.25 L 54 14.25 Z M 39.75 43.5 C 39.75 44.773438 39.226562 45 36.75 45 C 34.273438 45 33.75 44.773438 33.75 43.5 C 33.75 42.226562 34.273438 42 36.75 42 C 39.226562 42 39.75 42.226562 39.75 43.5 Z M 44.625 47.25 C 44.925781 47.699219 42.148438 48 36.75 48 C 31.351562 48 28.574219 47.699219 28.875 47.25 C 29.101562 46.800781 32.625 46.5 36.75 46.5 C 40.875 46.5 44.398438 46.800781 44.625 47.25 Z M 44.625 47.25 "/><path style=" stroke:none;fill-rule:nonzero;fill:#ffffff;fill-opacity:1;" d="M 21 37.5 C 21 37.875 21.375 38.25 21.75 38.25 C 22.199219 38.25 22.5 37.875 22.5 37.5 C 22.5 37.050781 22.199219 36.75 21.75 36.75 C 21.375 36.75 21 37.050781 21 37.5 Z M 21 37.5 "/><path style=" stroke:none;fill-rule:nonzero;fill:#ffffff;fill-opacity:1;" d="M 24 37.5 C 24 37.875 24.375 38.25 24.75 38.25 C 25.199219 38.25 25.5 37.875 25.5 37.5 C 25.5 37.050781 25.199219 36.75 24.75 36.75 C 24.375 36.75 24 37.050781 24 37.5 Z M 24 37.5 "/><path style=" stroke:none;fill-rule:nonzero;fill:#ffffff;fill-opacity:1;" d="M 27 37.5 C 27 37.875 27.375 38.25 27.75 38.25 C 28.199219 38.25 28.5 37.875 28.5 37.5 C 28.5 37.050781 28.199219 36.75 27.75 36.75 C 27.375 36.75 27 37.050781 27 37.5 Z M 27 37.5 "/><path style=" stroke:none;fill-rule:nonzero;fill:#ffffff;fill-opacity:1;" d="M 30 37.5 C 30 37.875 30.375 38.25 30.75 38.25 C 31.199219 38.25 31.5 37.875 31.5 37.5 C 31.5 37.050781 31.199219 36.75 30.75 36.75 C 30.375 36.75 30 37.050781 30 37.5 Z M 30 37.5 "/><path style=" stroke:none;fill-rule:nonzero;fill:#ffffff;fill-opacity:1;" d="M 33 37.5 C 33 37.875 33.375 38.25 33.75 38.25 C 34.199219 38.25 34.5 37.875 34.5 37.5 C 34.5 37.050781 34.199219 36.75 33.75 36.75 C 33.375 36.75 33 37.050781 33 37.5 Z M 33 37.5 "/><path style=" stroke:none;fill-rule:nonzero;fill:#ffffff;fill-opacity:1;" d="M 36 37.5 C 36 37.875 36.375 38.25 36.75 38.25 C 37.199219 38.25 37.5 37.875 37.5 37.5 C 37.5 37.050781 37.199219 36.75 36.75 36.75 C 36.375 36.75 36 37.050781 36 37.5 Z M 36 37.5 "/><path style=" stroke:none;fill-rule:nonzero;fill:#ffffff;fill-opacity:1;" d="M 39 37.5 C 39 37.875 39.375 38.25 39.75 38.25 C 40.199219 38.25 40.5 37.875 40.5 37.5 C 40.5 37.050781 40.199219 36.75 39.75 36.75 C 39.375 36.75 39 37.050781 39 37.5 Z M 39 37.5 "/><path style=" stroke:none;fill-rule:nonzero;fill:#ffffff;fill-opacity:1;" d="M 42 37.5 C 42 37.875 42.375 38.25 42.75 38.25 C 43.199219 38.25 43.5 37.875 43.5 37.5 C 43.5 37.050781 43.199219 36.75 42.75 36.75 C 42.375 36.75 42 37.050781 42 37.5 Z M 42 37.5 "/><path style=" stroke:none;fill-rule:nonzero;fill:#ffffff;fill-opacity:1;" d="M 45 37.5 C 45 37.875 45.375 38.25 45.75 38.25 C 46.199219 38.25 46.5 37.875 46.5 37.5 C 46.5 37.050781 46.199219 36.75 45.75 36.75 C 45.375 36.75 45 37.050781 45 37.5 Z M 45 37.5 "/><path style=" stroke:none;fill-rule:nonzero;fill:#ffffff;fill-opacity:1;" d="M 48 37.5 C 48 37.875 48.375 38.25 48.75 38.25 C 49.199219 38.25 49.5 37.875 49.5 37.5 C 49.5 37.050781 49.199219 36.75 48.75 36.75 C 48.375 36.75 48 37.050781 48 37.5 Z M 48 37.5 "/><path style=" stroke:none;fill-rule:nonzero;fill:#ffffff;fill-opacity:1;" d="M 51 37.5 C 51 37.875 51.375 38.25 51.75 38.25 C 52.199219 38.25 52.5 37.875 52.5 37.5 C 52.5 37.050781 52.199219 36.75 51.75 36.75 C 51.375 36.75 51 37.050781 51 37.5 Z M 51 37.5 "/><path style=" stroke:none;fill-rule:nonzero;fill:#ffffff;fill-opacity:1;" d="M 4.800781 15.226562 C 4.648438 15.75 4.574219 23.550781 4.648438 32.625 L 4.875 49.125 L 20.625 49.125 L 20.851562 46.351562 C 21 44.699219 20.773438 43.5 20.324219 43.5 C 19.875 43.5 19.5 44.476562 19.5 45.75 C 19.5 46.949219 19.199219 48 18.75 48 C 18.375 48 18 47.324219 18 46.5 C 18 45.148438 17.476562 45 12.75 45 C 8.023438 45 7.5 45.148438 7.5 46.5 C 7.5 47.324219 7.199219 48 6.75 48 C 6.300781 48 6 42.148438 6 31.875 L 6 15.75 L 11.25 15.75 C 14.25 15.75 16.5 15.449219 16.5 15 C 16.5 13.875 5.25 14.023438 4.800781 15.226562 Z M 16.5 47.25 C 16.5 47.625 14.851562 48 12.75 48 C 10.726562 48 9 47.625 9 47.25 C 9 46.800781 10.726562 46.5 12.75 46.5 C 14.851562 46.5 16.5 46.800781 16.5 47.25 Z M 16.5 47.25 "/><path style=" stroke:none;fill-rule:nonzero;fill:#ffffff;fill-opacity:1;" d="M 9 21.75 C 9 22.125 10.726562 22.5 12.75 22.5 C 14.851562 22.5 16.5 22.125 16.5 21.75 C 16.5 21.300781 14.851562 21 12.75 21 C 10.726562 21 9 21.300781 9 21.75 Z M 9 21.75 "/><path style=" stroke:none;fill-rule:nonzero;fill:#ffffff;fill-opacity:1;" d="M 9 24.75 C 9 25.125 10.726562 25.5 12.75 25.5 C 14.851562 25.5 16.5 25.125 16.5 24.75 C 16.5 24.300781 14.851562 24 12.75 24 C 10.726562 24 9 24.300781 9 24.75 Z M 9 24.75 "/><path style=" stroke:none;fill-rule:nonzero;fill:#ffffff;fill-opacity:1;" d="M 9 27.75 C 9 28.125 10.726562 28.5 12.75 28.5 C 14.851562 28.5 16.5 28.125 16.5 27.75 C 16.5 27.300781 14.851562 27 12.75 27 C 10.726562 27 9 27.300781 9 27.75 Z M 9 27.75 "/><path style=" stroke:none;fill-rule:nonzero;fill:#ffffff;fill-opacity:1;" d="M 11.550781 33.074219 C 10.800781 34.351562 12.523438 35.773438 13.574219 34.726562 C 14.476562 33.824219 13.875 32.25 12.75 32.25 C 12.375 32.25 11.851562 32.625 11.550781 33.074219 Z M 11.550781 33.074219 "/></g></svg>