<?xml version="1.0" encoding="UTF-8"?>
<!DOCTYPE svg PUBLIC "-//W3C//DTD SVG 1.1//EN" "http://www.w3.org/Graphics/SVG/1.1/DTD/svg11.dtd">
<svg xmlns="http://www.w3.org/2000/svg" version="1.1" width="256px" height="256px" style="shape-rendering:geometricPrecision; text-rendering:geometricPrecision; image-rendering:optimizeQuality; fill-rule:evenodd; clip-rule:evenodd" xmlns:xlink="http://www.w3.org/1999/xlink">
<g><path style="opacity:0.004" fill="#000000" d="M 58.5,22.5 C 68.3247,21.3417 78.3247,21.1751 88.5,22C 78.5056,22.4998 68.5056,22.6665 58.5,22.5 Z"/></g>
<g><path style="opacity:0.012" fill="#e9e9e9" d="M 58.5,22.5 C 57.7494,23.5735 56.7494,23.7401 55.5,23C 56.448,22.5172 57.448,22.3505 58.5,22.5 Z"/></g>
<g><path style="opacity:0.01" fill="#fefffe" d="M 89.5,23.5 C 90.2506,22.4265 91.2506,22.2599 92.5,23C 91.552,23.4828 90.552,23.6495 89.5,23.5 Z"/></g>
<g><path style="opacity:0.999" fill="#f7f7f7" d="M 96.5,66.5 C 96.1667,65.1667 95.8333,65.1667 95.5,66.5C 94.8333,66.5 94.5,66.8333 94.5,67.5C 93.8333,67.5 93.5,67.8333 93.5,68.5C 92.8333,68.5 92.5,68.8333 92.5,69.5C 80.1667,69.5 67.8333,69.5 55.5,69.5C 53.7777,68.1787 52.111,67.1787 50.5,66.5C 50.5,53.5 50.5,40.5 50.5,27.5C 51.0354,25.7295 51.8687,25.3961 53,26.5C 54.9449,25.1367 57.1116,24.3034 59.5,24C 69.1667,23.3333 78.8333,23.3333 88.5,24C 92.0842,25.411 95.2509,26.911 98,28.5C 98.6667,40.8333 98.6667,53.1667 98,65.5C 97.6174,66.056 97.1174,66.3893 96.5,66.5 Z"/></g>
<g><path style="opacity:0.008" fill="#868686" d="M 48.5,30.5 C 49.659,41.3255 49.8257,52.3255 49,63.5C 48.5002,52.505 48.3335,41.505 48.5,30.5 Z"/></g>
<g><path style="opacity:0.012" fill="#fefffe" d="M 95.5,66.5 C 95.8333,66.5 96.1667,66.5 96.5,66.5C 96.3147,67.1701 95.9813,67.1701 95.5,66.5 Z"/></g>
<g><path style="opacity:0.012" fill="#fefffe" d="M 94.5,67.5 C 94.8333,67.5 95.1667,67.5 95.5,67.5C 95.3147,68.1701 94.9813,68.1701 94.5,67.5 Z"/></g>
<g><path style="opacity:0.008" fill="#fefffe" d="M 93.5,68.5 C 93.8333,68.5 94.1667,68.5 94.5,68.5C 94.3147,69.1701 93.9813,69.1701 93.5,68.5 Z"/></g>
<g><path style="opacity:0.006" fill="#fefffe" d="M 55.5,69.5 C 55.5,69.8333 55.5,70.1667 55.5,70.5C 52.8333,70.1667 52.8333,69.8333 55.5,69.5 Z"/></g>
<g><path style="opacity:0.012" fill="#fefffe" d="M 92.5,69.5 C 92.8333,69.5 93.1667,69.5 93.5,69.5C 93.3147,70.1701 92.9813,70.1701 92.5,69.5 Z"/></g>
<g><path style="opacity:0.009" fill="#fefffe" d="M 55.5,70.5 C 56.791,70.2627 57.791,70.596 58.5,71.5C 57.209,71.7373 56.209,71.404 55.5,70.5 Z"/></g>
<g><path style="opacity:0.009" fill="#fefffe" d="M 92.5,70.5 C 91.7494,71.5735 90.7494,71.7401 89.5,71C 90.448,70.5172 91.448,70.3505 92.5,70.5 Z"/></g>
<g><path style="opacity:0.004" fill="#000000" d="M 58.5,71.5 C 63.8437,71.334 69.1771,71.5006 74.5,72C 68.9836,72.8174 63.6503,72.6507 58.5,71.5 Z"/></g>
<g><path style="opacity:0.004" fill="#000000" d="M 83.5,72.5 C 84.9464,71.3871 86.6131,71.2204 88.5,72C 86.8659,72.4935 85.1992,72.6602 83.5,72.5 Z"/></g>
<g><path style="opacity:0.012" fill="#b0b0b0" d="M 56.5,76.5 C 67.6591,75.3407 78.9924,75.1741 90.5,76C 79.1716,76.4999 67.8382,76.6665 56.5,76.5 Z"/></g>
<g><path style="opacity:0.012" fill="#fefffe" d="M 91.5,76.5 C 92.8333,77.1667 92.8333,77.1667 91.5,76.5 Z"/></g>
<g><path style="opacity:0.294" fill="#888888" d="M 176.5,78.5 C 177.964,77.8401 179.631,77.5068 181.5,77.5C 184.486,77.3817 187.152,78.0483 189.5,79.5C 185.202,78.8005 180.869,78.4672 176.5,78.5 Z"/></g>
<g><path style="opacity:0.999" fill="#fafafa" d="M 97.5,82.5 C 96.1667,94.5 96.1667,106.5 97.5,118.5C 97.6716,119.492 97.3382,120.158 96.5,120.5C 96.1667,119.167 95.8333,119.167 95.5,120.5C 94.8333,120.5 94.5,120.833 94.5,121.5C 93.8333,121.5 93.5,121.833 93.5,122.5C 81.2123,123.627 68.8789,123.793 56.5,123C 55.0161,122.338 53.6828,121.504 52.5,120.5C 52.5,119.833 52.1667,119.5 51.5,119.5C 51.6716,118.508 51.3382,117.842 50.5,117.5C 50.8279,106.321 50.4946,95.3206 49.5,84.5C 49.3118,82.8967 49.8118,81.5634 51,80.5C 51.3333,80.8333 51.6667,81.1667 52,81.5C 53.214,79.9512 54.714,78.7845 56.5,78C 67.8333,77.3333 79.1667,77.3333 90.5,78C 92.0806,78.7065 93.5806,79.5399 95,80.5C 96.6255,79.5881 97.4588,80.2547 97.5,82.5 Z"/></g>
<g><path style="opacity:0.999" fill="#f5f5f5" d="M 176.5,78.5 C 180.869,78.4672 185.202,78.8005 189.5,79.5C 191.679,79.84 193.512,80.84 195,82.5C 197.482,81.7307 199.315,82.7307 200.5,85.5C 199.209,86.5272 199.209,87.5272 200.5,88.5C 200.328,89.4916 200.662,90.1583 201.5,90.5C 201.328,91.4916 201.662,92.1583 202.5,92.5C 202.328,93.4916 202.662,94.1583 203.5,94.5C 203.328,95.4916 203.662,96.1583 204.5,96.5C 204.5,99.1667 204.5,101.833 204.5,104.5C 203.566,105.568 203.232,106.901 203.5,108.5C 202.167,109.167 202.167,109.833 203.5,110.5C 203.25,112.674 202.25,114.341 200.5,115.5C 200.167,114.167 199.833,114.167 199.5,115.5C 198.833,115.5 198.5,115.833 198.5,116.5C 197.833,116.5 197.5,116.833 197.5,117.5C 196.833,117.5 196.5,117.833 196.5,118.5C 195.833,118.5 195.5,118.833 195.5,119.5C 194.508,119.328 193.842,119.662 193.5,120.5C 192.833,120.5 192.5,120.833 192.5,121.5C 191.833,121.5 191.167,121.5 190.5,121.5C 187.848,121.41 185.515,122.076 183.5,123.5C 177.679,124.002 172.346,122.669 167.5,119.5C 167.5,118.833 167.167,118.5 166.5,118.5C 165.833,117.167 165.167,117.167 164.5,118.5C 161.723,116.049 159.723,113.049 158.5,109.5C 159.833,108.833 159.833,108.167 158.5,107.5C 158.818,102.968 158.485,98.6344 157.5,94.5C 157.841,91.4842 159.007,88.8175 161,86.5C 161.333,86.8333 161.667,87.1667 162,87.5C 165.728,82.5606 170.561,79.5606 176.5,78.5 Z"/></g>
<g><path style="opacity:0.012" fill="#f8f8f8" d="M 97.5,82.5 C 98.8333,94.5 98.8333,106.5 97.5,118.5C 97.5,106.5 97.5,94.5 97.5,82.5 Z"/></g>
<g><path style="opacity:0.008" fill="#868686" d="M 49.5,84.5 C 49.5,95.5 49.5,106.5 49.5,117.5C 48.1667,106.5 48.1667,95.5 49.5,84.5 Z"/></g>
<g><path style="opacity:0.016" fill="#909090" d="M 204.5,93.5 C 203.833,93.5 203.5,93.8333 203.5,94.5C 202.662,94.1583 202.328,93.4916 202.5,92.5C 201.662,92.1583 201.328,91.4916 201.5,90.5C 200.662,90.1583 200.328,89.4916 200.5,88.5C 201.397,87.4019 202.23,87.4019 203,88.5C 204.009,90.0249 204.509,91.6916 204.5,93.5 Z"/></g>
<g><path style="opacity:0.016" fill="#bdbdbd" d="M 204.5,93.5 C 205.833,94.5 205.833,95.5 204.5,96.5C 204.5,95.5 204.5,94.5 204.5,93.5 Z"/></g>
<g><path style="opacity:0.011" fill="#dcdcdc" d="M 157.5,94.5 C 157.5,98.8333 157.5,103.167 157.5,107.5C 156.167,103.167 156.167,98.8333 157.5,94.5 Z"/></g>
<g><path style="opacity:0.004" fill="#b8b8b8" d="M 205.5,104.5 C 205.337,102.143 205.503,99.8098 206,97.5C 206.796,100.039 206.629,102.372 205.5,104.5 Z"/></g>
<g><path style="opacity:0.012" fill="#b5b5b5" d="M 204.5,104.5 C 204.833,104.5 205.167,104.5 205.5,104.5C 205.768,106.099 205.434,107.432 204.5,108.5C 204.5,107.167 204.5,105.833 204.5,104.5 Z"/></g>
<g><path style="opacity:0.012" fill="#c5c5c5" d="M 157.5,107.5 C 157.833,107.5 158.167,107.5 158.5,107.5C 158.5,108.167 158.5,108.833 158.5,109.5C 157.662,109.158 157.328,108.492 157.5,107.5 Z"/></g>
<g><path style="opacity:0.008" fill="#a7a7a7" d="M 203.5,108.5 C 203.833,108.5 204.167,108.5 204.5,108.5C 204.672,109.492 204.338,110.158 203.5,110.5C 203.5,109.833 203.5,109.167 203.5,108.5 Z"/></g>
<g><path style="opacity:0.008" fill="#7e7f7e" d="M 199.5,115.5 C 199.833,115.5 200.167,115.5 200.5,115.5C 200.315,116.17 199.981,116.17 199.5,115.5 Z"/></g>
<g><path style="opacity:0.012" fill="#a9aaa9" d="M 198.5,116.5 C 198.833,116.5 199.167,116.5 199.5,116.5C 199.315,117.17 198.981,117.17 198.5,116.5 Z"/></g>
<g><path style="opacity:0.012" fill="#a9aaa9" d="M 197.5,117.5 C 197.833,117.5 198.167,117.5 198.5,117.5C 198.315,118.17 197.981,118.17 197.5,117.5 Z"/></g>
<g><path style="opacity:0.012" fill="#c5c5c5" d="M 49.5,117.5 C 49.8333,117.5 50.1667,117.5 50.5,117.5C 50.5,118.167 50.5,118.833 50.5,119.5C 49.6618,119.158 49.3284,118.492 49.5,117.5 Z"/></g>
<g><path style="opacity:0.006" fill="#c6c6c6" d="M 164.5,118.5 C 165.167,118.5 165.833,118.5 166.5,118.5C 167.167,118.5 167.5,118.833 167.5,119.5C 166.221,120.715 165.221,120.382 164.5,118.5 Z"/></g>
<g><path style="opacity:0.012" fill="#a9aaa9" d="M 196.5,118.5 C 196.833,118.5 197.167,118.5 197.5,118.5C 197.315,119.17 196.981,119.17 196.5,118.5 Z"/></g>
<g><path style="opacity:0.008" fill="#7e7f7e" d="M 195.5,119.5 C 195.833,119.5 196.167,119.5 196.5,119.5C 196.315,120.17 195.981,120.17 195.5,119.5 Z"/></g>
<g><path style="opacity:0.004" fill="#767676" d="M 50.5,119.5 C 50.8333,119.5 51.1667,119.5 51.5,119.5C 52.1667,119.5 52.5,119.833 52.5,120.5C 51.3774,121.757 50.7107,121.424 50.5,119.5 Z"/></g>
<g><path style="opacity:0.008" fill="#fefffe" d="M 95.5,120.5 C 95.8333,120.5 96.1667,120.5 96.5,120.5C 96.3147,121.17 95.9813,121.17 95.5,120.5 Z"/></g>
<g><path style="opacity:0.004" fill="#4e4e4e" d="M 193.5,121.5 C 193.5,121.167 193.5,120.833 193.5,120.5C 194.167,120.5 194.833,120.5 195.5,120.5C 195.158,121.338 194.492,121.672 193.5,121.5 Z"/></g>
<g><path style="opacity:0.008" fill="#fefffe" d="M 94.5,121.5 C 94.8333,121.5 95.1667,121.5 95.5,121.5C 95.3147,122.17 94.9813,122.17 94.5,121.5 Z"/></g>
<g><path style="opacity:0.012" fill="#a9aaa9" d="M 192.5,121.5 C 192.833,121.5 193.167,121.5 193.5,121.5C 193.315,122.17 192.981,122.17 192.5,121.5 Z"/></g>
<g><path style="opacity:0.012" fill="#a9aaa9" d="M 93.5,122.5 C 93.8333,122.5 94.1667,122.5 94.5,122.5C 94.3147,123.17 93.9813,123.17 93.5,122.5 Z"/></g>
<g><path style="opacity:0.396" fill="#727272" d="M 190.5,121.5 C 190.5,121.833 190.5,122.167 190.5,122.5C 189.209,122.263 188.209,122.596 187.5,123.5C 186.167,123.5 184.833,123.5 183.5,123.5C 185.515,122.076 187.848,121.41 190.5,121.5 Z"/></g>
<g><path style="opacity:0.004" fill="#4e4e4e" d="M 190.5,123.5 C 190.5,123.167 190.5,122.833 190.5,122.5C 191.167,122.5 191.833,122.5 192.5,122.5C 192.158,123.338 191.492,123.672 190.5,123.5 Z"/></g>
<g><path style="opacity:0.012" fill="#909090" d="M 187.5,124.5 C 187.5,124.167 187.5,123.833 187.5,123.5C 188.5,123.5 189.5,123.5 190.5,123.5C 189.791,124.404 188.791,124.737 187.5,124.5 Z"/></g>
<g><path style="opacity:0.013" fill="#c0c0c0" d="M 187.5,124.5 C 183.689,125.645 179.689,125.812 175.5,125C 179.486,124.501 183.486,124.334 187.5,124.5 Z"/></g>
<g><path style="opacity:0.999" fill="#fafafa" d="M 97.5,136.5 C 96.1667,148.5 96.1667,160.5 97.5,172.5C 97.573,174.027 96.9063,175.027 95.5,175.5C 95.1667,174.167 94.8333,174.167 94.5,175.5C 93.5084,175.328 92.8417,175.662 92.5,176.5C 91.5084,176.328 90.8417,176.662 90.5,177.5C 79.1618,177.667 67.8284,177.5 56.5,177C 54.714,176.215 53.214,175.049 52,173.5C 51.6667,173.833 51.3333,174.167 51,174.5C 49.8118,173.437 49.3118,172.103 49.5,170.5C 50.3305,159.674 50.8305,148.674 51,137.5C 52.1217,135.376 53.6217,133.543 55.5,132C 67.5,131.333 79.5,131.333 91.5,132C 92.9308,132.465 94.0975,133.299 95,134.5C 96.6255,133.588 97.4588,134.255 97.5,136.5 Z"/></g>
<g><path style="opacity:0.999" fill="#f9f9f9" d="M 202.5,134.5 C 202.5,135.167 202.833,135.5 203.5,135.5C 204.127,147.296 204.793,158.962 205.5,170.5C 205.771,172.38 205.104,173.713 203.5,174.5C 203.167,173.167 202.833,173.167 202.5,174.5C 201.833,174.5 201.5,174.833 201.5,175.5C 200.833,175.5 200.5,175.833 200.5,176.5C 199.508,176.328 198.842,176.662 198.5,177.5C 186.829,177.667 175.162,177.5 163.5,177C 162.069,176.535 160.903,175.701 160,174.5C 158.375,175.412 157.541,174.745 157.5,172.5C 158.833,160.5 158.833,148.5 157.5,136.5C 157.393,134.621 157.893,134.288 159,135.5C 160.214,133.951 161.714,132.785 163.5,132C 175.5,131.333 187.5,131.333 199.5,132C 200.373,133.045 201.373,133.878 202.5,134.5 Z"/></g>
<g><path style="opacity:0.004" fill="#767676" d="M 202.5,134.5 C 202.56,133.957 202.893,133.624 203.5,133.5C 204.773,134.257 204.773,134.923 203.5,135.5C 202.833,135.5 202.5,135.167 202.5,134.5 Z"/></g>
<g><path style="opacity:0.013" fill="#fbfbfb" d="M 97.5,136.5 C 98.8333,148.5 98.8333,160.5 97.5,172.5C 97.5,160.5 97.5,148.5 97.5,136.5 Z"/></g>
<g><path style="opacity:0.009" fill="#fcfcfc" d="M 157.5,136.5 C 157.5,148.5 157.5,160.5 157.5,172.5C 156.167,160.5 156.167,148.5 157.5,136.5 Z"/></g>
<g><path style="opacity:0.008" fill="#7e7e7e" d="M 49.5,170.5 C 48.341,159.674 48.1743,148.674 49,137.5C 49.4998,148.495 49.6665,159.495 49.5,170.5 Z"/></g>
<g><path style="opacity:0.004" fill="#f6f6f6" d="M 205.5,170.5 C 205.333,159.495 205.5,148.495 206,137.5C 206.826,148.674 206.659,159.674 205.5,170.5 Z"/></g>
<g><path style="opacity:0.012" fill="#a9aaa9" d="M 202.5,174.5 C 202.833,174.5 203.167,174.5 203.5,174.5C 203.315,175.17 202.981,175.17 202.5,174.5 Z"/></g>
<g><path style="opacity:0.004" fill="#fefffe" d="M 94.5,175.5 C 94.8333,175.5 95.1667,175.5 95.5,175.5C 95.3147,176.17 94.9813,176.17 94.5,175.5 Z"/></g>
<g><path style="opacity:0.012" fill="#a9aaa9" d="M 201.5,175.5 C 201.833,175.5 202.167,175.5 202.5,175.5C 202.315,176.17 201.981,176.17 201.5,175.5 Z"/></g>
<g><path style="opacity:0.004" fill="#fefffe" d="M 92.5,177.5 C 92.5,177.167 92.5,176.833 92.5,176.5C 93.1667,176.5 93.8333,176.5 94.5,176.5C 94.1583,177.338 93.4916,177.672 92.5,177.5 Z"/></g>
<g><path style="opacity:0.012" fill="#a9aaa9" d="M 200.5,176.5 C 200.833,176.5 201.167,176.5 201.5,176.5C 201.315,177.17 200.981,177.17 200.5,176.5 Z"/></g>
<g><path style="opacity:0.008" fill="#fefffe" d="M 90.5,178.5 C 90.5,178.167 90.5,177.833 90.5,177.5C 91.1667,177.5 91.8333,177.5 92.5,177.5C 92.1583,178.338 91.4916,178.672 90.5,178.5 Z"/></g>
<g><path style="opacity:0.008" fill="#a7a7a7" d="M 198.5,178.5 C 198.5,178.167 198.5,177.833 198.5,177.5C 199.167,177.5 199.833,177.5 200.5,177.5C 200.158,178.338 199.492,178.672 198.5,178.5 Z"/></g>
<g><path style="opacity:0.008" fill="#f3f3f3" d="M 90.5,178.5 C 79.3409,179.659 68.0076,179.826 56.5,179C 67.8284,178.5 79.1618,178.333 90.5,178.5 Z"/></g>
<g><path style="opacity:0.012" fill="#ababab" d="M 198.5,178.5 C 187.007,179.659 175.341,179.826 163.5,179C 175.162,178.5 186.829,178.333 198.5,178.5 Z"/></g>
<g><path style="opacity:0.004" fill="#757575" d="M 146.5,185.5 C 148.725,184.668 150.058,185.668 150.5,188.5C 150.167,188.5 149.833,188.5 149.5,188.5C 149.5,187.833 149.167,187.5 148.5,187.5C 147.833,187.5 147.5,187.167 147.5,186.5C 147.5,185.833 147.167,185.5 146.5,185.5 Z"/></g>
<g><path style="opacity:0.989" fill="#fcfcfc" d="M 97.5,189.5 C 96.1667,201.5 96.1667,213.5 97.5,225.5C 97.573,227.027 96.9063,228.027 95.5,228.5C 95.1667,227.167 94.8333,227.167 94.5,228.5C 93.8333,228.5 93.5,228.833 93.5,229.5C 92.5084,229.328 91.8417,229.662 91.5,230.5C 79.8286,230.667 68.1619,230.5 56.5,230C 54.714,229.215 53.214,228.049 52,226.5C 51.6667,226.833 51.3333,227.167 51,227.5C 49.8118,226.437 49.3118,225.103 49.5,223.5C 49.8333,223.5 50.1667,223.5 50.5,223.5C 50.5,223.833 50.5,224.167 50.5,224.5C 50.8333,225.833 51.1667,225.833 51.5,224.5C 51.5,213.167 51.5,201.833 51.5,190.5C 52.3382,190.158 52.6716,189.492 52.5,188.5C 53.343,186.827 54.6763,185.66 56.5,185C 68.1667,184.333 79.8333,184.333 91.5,185C 92.9308,185.465 94.0975,186.299 95,187.5C 96.6255,186.588 97.4588,187.255 97.5,189.5 Z"/></g>
<g><path style="opacity:0.99" fill="#fbfbfb" d="M 146.5,185.5 C 147.167,185.5 147.5,185.833 147.5,186.5C 147.5,187.167 147.833,187.5 148.5,187.5C 149.167,187.5 149.5,187.833 149.5,188.5C 149.5,188.833 149.5,189.167 149.5,189.5C 149.5,201.5 149.5,213.5 149.5,225.5C 149.5,226.167 149.833,226.5 150.5,226.5C 150.573,228.027 149.906,229.027 148.5,229.5C 148.167,228.167 147.833,228.167 147.5,229.5C 146.508,229.328 145.842,229.662 145.5,230.5C 133.495,230.667 121.495,230.5 109.5,230C 108.062,228.759 106.562,228.259 105,228.5C 104.5,227.5 104,226.5 103.5,225.5C 104.463,212.969 104.796,200.636 104.5,188.5C 104.833,189.833 105.167,189.833 105.5,188.5C 106.167,188.5 106.5,188.167 106.5,187.5C 107.683,186.496 109.016,185.662 110.5,185C 122.546,184.208 134.546,184.374 146.5,185.5 Z"/></g>
<g><path style="opacity:0.989" fill="#fbfbfb" d="M 205.5,191.5 C 205.167,191.5 204.833,191.5 204.5,191.5C 204.5,191.167 204.5,190.833 204.5,190.5C 204.167,189.167 203.833,189.167 203.5,190.5C 203.5,201.833 203.5,213.167 203.5,224.5C 203.5,225.167 203.5,225.833 203.5,226.5C 202.833,226.5 202.5,226.833 202.5,227.5C 201.833,227.5 201.5,227.833 201.5,228.5C 200.833,228.5 200.5,228.833 200.5,229.5C 199.508,229.328 198.842,229.662 198.5,230.5C 186.829,230.667 175.162,230.5 163.5,230C 161.673,228.346 159.84,227.512 158,227.5C 158.812,214.533 158.645,201.533 157.5,188.5C 159.377,187.94 161.377,186.773 163.5,185C 175.167,184.333 186.833,184.333 198.5,185C 200.286,185.785 201.786,186.951 203,188.5C 203.333,188.167 203.667,187.833 204,187.5C 205.188,188.563 205.688,189.897 205.5,191.5 Z"/></g>
<g><path style="opacity:0.007" fill="#fefffe" d="M 106.5,187.5 C 105.833,187.5 105.5,187.833 105.5,188.5C 105.167,188.5 104.833,188.5 104.5,188.5C 104.711,186.576 105.377,186.243 106.5,187.5 Z"/></g>
<g><path style="opacity:0.012" fill="#fefffe" d="M 97.5,189.5 C 98.8333,201.5 98.8333,213.5 97.5,225.5C 97.5,213.5 97.5,201.5 97.5,189.5 Z"/></g>
<g><path style="opacity:0.358" fill="#c9c9c9" d="M 150.5,188.5 C 151.222,188.918 151.722,189.584 152,190.5C 152.667,202.167 152.667,213.833 152,225.5C 151.617,226.056 151.117,226.389 150.5,226.5C 149.833,226.5 149.5,226.167 149.5,225.5C 149.5,213.5 149.5,201.5 149.5,189.5C 150.167,189.5 150.5,189.167 150.5,188.5 Z"/></g>
<g><path style="opacity:0.118" fill="#ababab" d="M 52.5,188.5 C 52.6716,189.492 52.3382,190.158 51.5,190.5C 51.5,201.833 51.5,213.167 51.5,224.5C 51.1667,224.5 50.8333,224.5 50.5,224.5C 50.5,224.167 50.5,223.833 50.5,223.5C 50.1667,180.833 49.8333,180.833 49.5,223.5C 48.341,212.674 48.1743,201.674 49,190.5C 49.5334,188.061 50.7,187.395 52.5,188.5 Z"/></g>
<g><path style="opacity:0.078" fill="#bababa" d="M 203.5,190.5 C 203.833,190.5 204.167,190.5 204.5,190.5C 204.5,190.833 204.5,191.167 204.5,191.5C 204.833,234.167 205.167,234.167 205.5,191.5C 206.659,202.326 206.826,213.326 206,224.5C 205.722,225.416 205.222,226.082 204.5,226.5C 204.672,225.508 204.338,224.842 203.5,224.5C 203.5,213.167 203.5,201.833 203.5,190.5 Z"/></g>
<g><path style="opacity:0.012" fill="#fefffe" d="M 203.5,226.5 C 203.833,226.5 204.167,226.5 204.5,226.5C 204.315,227.17 203.981,227.17 203.5,226.5 Z"/></g>
<g><path style="opacity:0.012" fill="#fefffe" d="M 202.5,227.5 C 202.833,227.5 203.167,227.5 203.5,227.5C 203.315,228.17 202.981,228.17 202.5,227.5 Z"/></g>
<g><path style="opacity:0.008" fill="#fefffe" d="M 94.5,228.5 C 94.8333,228.5 95.1667,228.5 95.5,228.5C 95.3147,229.17 94.9813,229.17 94.5,228.5 Z"/></g>
<g><path style="opacity:0.008" fill="#fefffe" d="M 201.5,228.5 C 201.833,228.5 202.167,228.5 202.5,228.5C 202.315,229.17 201.981,229.17 201.5,228.5 Z"/></g>
<g><path style="opacity:0.008" fill="#fefffe" d="M 93.5,229.5 C 93.8333,229.5 94.1667,229.5 94.5,229.5C 94.3147,230.17 93.9813,230.17 93.5,229.5 Z"/></g>
<g><path style="opacity:0.004" fill="#fefffe" d="M 147.5,229.5 C 147.833,229.5 148.167,229.5 148.5,229.5C 148.315,230.17 147.981,230.17 147.5,229.5 Z"/></g>
<g><path style="opacity:0.008" fill="#fefffe" d="M 200.5,229.5 C 200.833,229.5 201.167,229.5 201.5,229.5C 201.315,230.17 200.981,230.17 200.5,229.5 Z"/></g>
<g><path style="opacity:0.008" fill="#fefffe" d="M 91.5,231.5 C 91.5,231.167 91.5,230.833 91.5,230.5C 92.1667,230.5 92.8333,230.5 93.5,230.5C 93.1583,231.338 92.4916,231.672 91.5,231.5 Z"/></g>
<g><path style="opacity:0.004" fill="#4e4e4e" d="M 145.5,231.5 C 145.5,231.167 145.5,230.833 145.5,230.5C 146.167,230.5 146.833,230.5 147.5,230.5C 147.158,231.338 146.492,231.672 145.5,231.5 Z"/></g>
<g><path style="opacity:0.012" fill="#c5c5c5" d="M 198.5,231.5 C 198.5,231.167 198.5,230.833 198.5,230.5C 199.167,230.5 199.833,230.5 200.5,230.5C 200.158,231.338 199.492,231.672 198.5,231.5 Z"/></g>
<g><path style="opacity:0.015" fill="#fefffe" d="M 91.5,231.5 C 80.0073,232.659 68.3407,232.826 56.5,232C 68.1619,231.5 79.8286,231.333 91.5,231.5 Z"/></g>
<g><path style="opacity:0.016" fill="#f5f5f5" d="M 145.5,231.5 C 133.674,232.66 121.674,232.826 109.5,232C 121.495,231.5 133.495,231.333 145.5,231.5 Z"/></g>
<g><path style="opacity:0.016" fill="#f9f9f9" d="M 198.5,231.5 C 187.007,232.659 175.341,232.826 163.5,232C 175.162,231.5 186.829,231.333 198.5,231.5 Z"/></g>
</svg>
